<svg width="164" height="40" viewBox="0 0 164 40" fill="none" xmlns="http://www.w3.org/2000/svg">
<path fill-rule="evenodd" clip-rule="evenodd" d="M3.19702 18.4376H8.96419C9.7223 13.1376 14.2804 9.0634 19.79 9.0634C25.2997 9.0634 29.8578 13.1376 30.6159 18.4376H36.3831C35.5954 9.96625 28.4672 3.3347 19.79 3.3347C11.1129 3.3347 3.98466 9.96625 3.19702 18.4376ZM36.3831 21.5624H30.6159C29.8578 26.8624 25.2997 30.9366 19.79 30.9366C14.2804 30.9366 9.7223 26.8624 8.96419 21.5624H3.19702C3.98466 30.0337 11.1129 36.6653 19.79 36.6653C28.4672 36.6653 35.5954 30.0337 36.3831 21.5624ZM12.1344 21.5624C12.8582 25.1281 16.0107 27.8119 19.79 27.8119C23.5693 27.8119 26.7218 25.1281 27.4456 21.5624H12.1344ZM27.4456 18.4376C26.7218 14.8719 23.5693 12.1881 19.79 12.1881C16.0107 12.1881 12.8582 14.8719 12.1344 18.4376H27.4456ZM0 20C0 9.07026 8.8603 0.209961 19.79 0.209961C30.7198 0.209961 39.5801 9.07026 39.5801 20C39.5801 30.9297 30.7198 39.79 19.79 39.79C8.8603 39.79 0 30.9297 0 20Z" fill="#FFFCE4"/>
<path d="M63.1921 19.5201C65.4558 20.8242 66.5877 22.7926 66.5877 25.4254C66.5877 27.6153 65.8126 29.4115 64.2625 30.814C62.7123 32.2165 60.8054 32.9177 58.5417 32.9177H47.5801V7.08214H57.7667C59.9812 7.08214 61.8389 7.77109 63.3398 9.14899C64.8653 10.5023 65.6281 12.237 65.6281 14.353C65.6281 16.4937 64.8161 18.216 63.1921 19.5201ZM57.7667 11.8433H52.6734V17.5271H57.7667C58.554 17.5271 59.2061 17.2564 59.7228 16.7151C60.2641 16.1738 60.5348 15.4972 60.5348 14.6852C60.5348 13.8732 60.2764 13.1966 59.7597 12.6552C59.243 12.1139 58.5786 11.8433 57.7667 11.8433ZM58.5417 28.1566C59.4029 28.1566 60.1165 27.8736 60.6824 27.3077C61.2483 26.7172 61.5313 25.979 61.5313 25.0932C61.5313 24.232 61.2483 23.5185 60.6824 22.9526C60.1165 22.362 59.4029 22.0668 58.5417 22.0668H52.6734V28.1566H58.5417Z" fill="#FFFCE4"/>
<path d="M84.0993 32.9177L78.8953 23.9491H75.02V32.9177H69.9267V7.08214H80.2609C82.6476 7.08214 84.6776 7.91872 86.3507 9.59188C88.0239 11.265 88.8605 13.2827 88.8605 15.6448C88.8605 17.2441 88.4053 18.7328 87.4949 20.1107C86.5845 21.4639 85.3788 22.4851 83.8779 23.174L89.5986 32.9177H84.0993ZM75.02 11.8433V19.4832H80.2609C81.2205 19.4832 82.0448 19.1141 82.7337 18.376C83.4227 17.6132 83.7672 16.7028 83.7672 15.6448C83.7672 14.5868 83.4227 13.6887 82.7337 12.9505C82.0448 12.2123 81.2205 11.8433 80.2609 11.8433H75.02Z" fill="#FFFCE4"/>
<path d="M97.691 28.0459H108.579V32.9177H92.5977V7.08214H108.394V11.954H97.691V17.4533H107.472V22.2513H97.691V28.0459Z" fill="#FFFCE4"/>
<path d="M118.554 32.9177L109.881 7.08214H115.417L121.728 26.9386L128.003 7.08214H133.576L124.865 32.9177H118.554Z" fill="#FFFCE4"/>
<path d="M136.065 7.08214H141.159V32.9177H136.065V7.08214Z" fill="#FFFCE4"/>
<path d="M154.366 33.4344C151.807 33.4344 149.654 32.8685 147.907 31.7367C146.16 30.5802 144.93 29.0178 144.216 27.0493L148.571 24.5027C149.58 27.1355 151.561 28.4518 154.513 28.4518C155.94 28.4518 156.986 28.1935 157.651 27.6768C158.315 27.1601 158.647 26.508 158.647 25.7207C158.647 24.8103 158.241 24.109 157.429 23.6169C156.617 23.1002 155.165 22.5466 153.074 21.956C151.918 21.6116 150.933 21.2671 150.121 20.9226C149.334 20.5781 148.534 20.123 147.722 19.557C146.935 18.9665 146.332 18.2283 145.914 17.3426C145.496 16.4568 145.286 15.4233 145.286 14.2423C145.286 11.9048 146.111 10.0471 147.759 8.66918C149.432 7.26668 151.438 6.56543 153.775 6.56543C155.867 6.56543 157.7 7.08214 159.274 8.11556C160.874 9.12438 162.116 10.5392 163.002 12.36L158.721 14.8328C157.687 12.6183 156.039 11.5111 153.775 11.5111C152.717 11.5111 151.881 11.7571 151.265 12.2493C150.675 12.7168 150.38 13.3319 150.38 14.0947C150.38 14.9066 150.712 15.571 151.376 16.0877C152.065 16.5798 153.369 17.1211 155.288 17.7116C156.076 17.9577 156.666 18.1545 157.06 18.3022C157.478 18.4252 158.032 18.6343 158.721 18.9296C159.434 19.2003 159.976 19.4586 160.345 19.7047C160.739 19.9507 161.181 20.2829 161.674 20.7012C162.166 21.1195 162.535 21.5501 162.781 21.993C163.051 22.4359 163.273 22.9772 163.445 23.6169C163.642 24.232 163.74 24.9087 163.74 25.6468C163.74 28.0336 162.867 29.9282 161.12 31.3307C159.398 32.7332 157.146 33.4344 154.366 33.4344Z" fill="#FFFCE4"/>
</svg>
