<svg version="1.1" id="Layer_1" xmlns="http://www.w3.org/2000/svg" xmlns:xlink="http://www.w3.org/1999/xlink" x="0px" y="0px"
	 width="100%" viewBox="0 0 883 282" enable-background="new 0 0 883 282" xml:space="preserve">
<path fill="#000101" opacity="1.000000" stroke="none" 
	d="
M625.000000,283.000000 
	C416.666656,283.000000 208.833328,283.000000 1.000000,283.000000 
	C1.000000,189.000000 1.000000,95.000000 1.000000,1.000000 
	C295.333344,1.000000 589.666687,1.000000 884.000000,1.000000 
	C884.000000,95.000000 884.000000,189.000000 884.000000,283.000000 
	C797.833313,283.000000 711.666687,283.000000 625.000000,283.000000 
M175.643372,212.165192 
	C175.626770,211.858627 175.629562,211.552261 175.997086,210.328369 
	C175.884476,198.801880 175.771881,187.275391 175.625916,175.313461 
	C175.614563,175.022461 175.610779,174.731369 175.354599,173.659531 
	C168.274185,173.659531 161.193771,173.659531 153.984909,173.659531 
	C153.984909,179.794220 153.984909,185.908905 153.109711,192.381409 
	C128.054886,192.381409 103.000053,192.381409 77.815605,192.381409 
	C78.458549,180.871521 83.221619,172.055435 90.900795,164.914917 
	C99.189293,157.207779 107.854866,149.901794 116.444977,142.524460 
	C128.764801,131.943985 141.165283,121.457428 154.355469,110.229225 
	C154.355469,125.226189 154.355469,139.238144 154.355469,153.355042 
	C161.678406,153.355042 168.421066,153.355042 175.242874,153.355042 
	C175.242874,126.513763 175.242874,99.965195 175.242874,73.621582 
	C135.305222,73.621582 95.742561,73.621582 56.161736,73.621582 
	C56.161736,86.981125 56.161736,99.938538 56.161736,113.067581 
	C63.253185,113.067581 70.151382,113.067581 77.410736,113.067581 
	C77.410736,106.809204 77.410736,100.875580 77.410736,94.895493 
	C98.178818,94.895493 118.577080,94.895493 139.735245,94.895493 
	C121.151909,110.669197 103.234573,125.802444 85.404495,141.037827 
	C73.086639,151.563126 61.643486,163.097183 58.487129,179.641296 
	C56.477997,190.172211 56.770863,201.142319 55.599834,212.475327 
	C56.891216,213.020096 58.181511,214.037888 59.474133,214.040848 
	C96.857651,214.126526 134.241425,214.126099 171.624969,214.048523 
	C172.968307,214.045731 174.309723,213.120331 175.643372,212.165192 
M457.591888,179.125870 
	C462.003540,176.053238 466.415161,172.980591 470.874268,169.874908 
	C470.874268,172.572113 470.874268,175.959900 470.874268,179.271973 
	C475.646759,179.271973 479.894867,179.271973 484.240662,179.271973 
	C484.240662,155.615540 484.240662,132.247238 484.240662,108.693451 
	C479.673676,108.693451 475.410248,108.693451 470.861176,108.693451 
	C470.861176,112.178253 470.861176,115.461990 470.861176,119.714844 
	C465.369720,112.232841 458.744812,108.001534 450.435913,106.918976 
	C435.610565,104.987381 421.562836,112.050148 414.671692,124.641808 
	C407.004913,138.650696 408.127197,155.962738 417.444183,167.409500 
	C427.310760,179.531387 441.993073,183.987915 457.591888,179.125870 
M721.149902,179.551758 
	C724.621094,180.157074 724.765259,178.133011 724.755066,175.437363 
	C724.674561,154.137665 724.716248,132.837524 724.698792,111.537529 
	C724.698059,110.613396 724.486145,109.689438 724.376038,108.793457 
	C719.758484,108.793457 715.512085,108.793457 710.869934,108.793457 
	C710.869934,112.303528 710.869934,115.512787 710.869934,119.091209 
	C695.374084,103.478485 675.482788,102.606079 661.227417,116.527107 
	C646.275452,131.128418 645.849487,155.570587 660.311646,170.514862 
	C667.142639,177.573624 675.588806,180.961731 685.324524,181.235748 
	C695.779907,181.530014 704.177795,177.380081 711.042175,168.067764 
	C711.042175,172.515717 711.042175,175.765656 711.042175,179.551498 
	C714.339172,179.551498 717.293640,179.551498 721.149902,179.551758 
M635.395874,179.585571 
	C637.139038,179.503754 638.882263,179.421936 640.733337,179.335068 
	C640.733337,163.736404 641.046448,148.747406 640.629700,133.778702 
	C640.322205,122.731674 636.900757,112.640495 625.307373,108.652451 
	C613.398010,104.555725 601.982910,105.689377 592.563660,115.309189 
	C591.761353,116.128555 590.704285,116.698486 588.787964,118.098495 
	C588.787964,102.130623 588.787964,87.446671 588.787964,72.764603 
	C583.966614,72.764603 579.705444,72.764603 575.414001,72.764603 
	C575.414001,108.428368 575.414001,143.796722 575.414001,179.313629 
	C579.969299,179.313629 584.228516,179.313629 588.935974,179.313629 
	C588.935974,167.466827 588.577454,155.838470 589.095886,144.249344 
	C589.334717,138.911545 590.461914,133.273666 592.660095,128.442413 
	C596.020264,121.057541 604.098450,117.835304 612.450378,119.157005 
	C619.915344,120.338341 624.473633,125.073746 626.049133,133.706726 
	C626.612915,136.796051 626.770630,139.991547 626.796448,143.141190 
	C626.884949,153.963058 626.822083,164.786118 626.849304,175.608643 
	C626.852478,176.863205 627.058411,178.117264 627.187805,179.567001 
	C629.872498,179.567001 632.189209,179.567001 635.395874,179.585571 
M311.556702,147.819550 
	C326.803833,147.819550 342.050934,147.819550 357.162140,147.819550 
	C361.842377,124.389381 346.769135,106.215347 323.697968,106.676201 
	C304.174438,107.066185 291.367645,120.524414 290.056519,142.028870 
	C288.289337,171.013779 315.391968,189.952255 341.566193,177.921341 
	C349.822021,174.126556 354.918671,167.562408 357.693298,158.303543 
	C353.276031,158.303543 349.631592,158.170547 346.007721,158.385406 
	C344.934570,158.449051 343.568024,159.240463 342.932129,160.126328 
	C336.573425,168.984741 328.227325,171.821503 317.701538,168.532913 
	C309.006989,165.816452 304.168091,158.547134 304.182800,147.820053 
	C306.301941,147.820053 308.438599,147.820053 311.556702,147.819550 
M789.507874,121.911011 
	C794.338196,121.910759 799.168640,121.891190 803.998840,121.914345 
	C813.543152,121.960091 815.737976,124.120667 815.766846,133.729004 
	C815.807312,147.220337 815.762878,160.711929 815.755005,174.203400 
	C815.753967,175.942337 815.754822,177.681259 815.754822,179.313004 
	C820.625854,179.313004 824.729614,179.313004 829.064636,179.313004 
	C829.064636,163.439728 829.624817,147.788666 828.891968,132.198410 
	C828.277222,119.119949 817.301331,109.259834 804.107300,108.570389 
	C797.959900,108.249168 791.785461,108.428795 785.623230,108.412575 
	C778.357666,108.393448 771.091980,108.408089 763.762451,108.408089 
	C763.762451,132.425125 763.762451,155.809143 763.762451,179.191650 
	C768.311768,179.191650 772.530579,179.191650 777.152344,179.191650 
	C777.152344,159.898193 777.152344,140.989197 777.152344,121.911095 
	C781.214844,121.911095 784.863892,121.911095 789.507874,121.911011 
M563.869507,132.526901 
	C561.669678,119.498978 554.088928,111.049522 541.391296,107.998825 
	C527.074707,104.559189 513.759827,106.603951 503.651642,118.557091 
	C492.687256,131.522675 491.892700,152.668045 501.524933,166.638718 
	C510.553162,179.733353 527.473511,184.688919 544.382324,179.190674 
	C555.402649,175.607178 563.729797,165.237030 563.590820,154.948181 
	C559.957947,154.948181 556.305420,154.805847 552.677246,155.040741 
	C551.675842,155.105591 550.336975,156.076996 549.847473,157.000549 
	C543.986328,168.058395 534.179077,171.776489 522.413879,167.257538 
	C512.794800,163.562897 507.675873,153.328323 508.947540,140.333359 
	C510.090851,128.650436 517.209351,120.562347 527.476990,119.280045 
	C539.893372,117.729393 546.015198,121.690887 550.859680,134.961838 
	C555.103577,134.445541 559.543701,133.905380 563.869507,132.526901 
M258.502136,167.139557 
	C253.214920,167.139557 247.927719,167.139557 242.251984,167.139557 
	C242.892181,160.992935 246.005264,156.834534 250.122894,153.327515 
	C260.647644,144.363525 271.255432,135.497070 281.779999,126.532928 
	C282.985779,125.505920 284.668823,124.167473 284.767975,122.869347 
	C285.128693,118.146889 284.910370,113.380188 284.910370,108.630417 
	C266.139832,108.630417 248.060425,108.630417 229.916077,108.630417 
	C229.916077,112.820953 229.916077,116.722397 229.916077,121.188889 
	C242.914261,121.188889 255.583572,121.188889 269.161316,121.188889 
	C260.285828,128.607498 252.367920,135.490799 244.166763,142.018188 
	C232.041824,151.668533 227.913651,164.172607 230.027008,179.178284 
	C248.335632,179.178284 266.531586,179.178284 284.690369,179.178284 
	C284.690369,175.021240 284.690369,171.261856 284.690369,167.139603 
	C276.105103,167.139603 267.803070,167.139603 258.502136,167.139557 
M387.286011,145.494690 
	C387.286011,137.102173 387.286011,128.709656 387.286011,119.839584 
	C393.799225,119.839584 399.694275,119.839584 405.586395,119.839584 
	C405.586395,115.901718 405.586395,112.456352 405.586395,108.446739 
	C399.497192,108.446739 393.582764,108.446739 387.129211,108.446739 
	C387.129211,100.182335 387.129211,92.469910 387.129211,84.909607 
	C382.297272,84.909607 378.022003,84.909607 373.354431,84.909607 
	C373.354431,92.774315 373.354431,100.357994 373.354431,108.427048 
	C368.895752,108.427048 364.811829,108.427048 360.493439,108.427048 
	C360.493439,112.502365 360.493439,116.086464 360.493439,120.163223 
	C364.746613,120.163223 368.970459,120.163223 373.061401,120.163223 
	C373.247925,120.967659 373.385071,121.285469 373.386047,121.603699 
	C373.407379,128.594879 373.364929,135.586639 373.436920,142.577209 
	C373.503723,149.064270 373.269623,155.592529 373.919739,162.026688 
	C374.937683,172.101273 380.082428,178.493774 388.709839,179.664734 
	C394.996643,180.518036 401.492401,179.831619 408.020203,179.831619 
	C408.020203,175.417007 408.020203,171.645981 408.020203,167.737595 
	C404.516510,167.737595 401.225067,167.809219 397.937775,167.722275 
	C391.611359,167.554977 388.785431,165.260330 387.909027,158.933517 
	C387.341400,154.835892 387.469696,150.641861 387.286011,145.494690 
M750.967896,140.500000 
	C750.967896,129.930588 750.967896,119.361183 750.967896,108.736679 
	C746.119446,108.736679 741.855164,108.736679 737.382385,108.736679 
	C737.382385,132.338593 737.382385,155.692383 737.382385,179.227936 
	C741.980530,179.227936 746.367188,179.227936 750.967896,179.227936 
	C750.967896,166.431961 750.967896,153.965988 750.967896,140.500000 
M753.351624,76.311127 
	C750.855164,71.936554 747.081482,69.959198 742.132507,70.839729 
	C737.841980,71.603127 734.954590,74.321846 733.923767,78.548012 
	C732.858521,82.915535 733.934387,86.849373 737.691895,89.607658 
	C741.568176,92.453156 745.725342,92.517921 749.785767,89.990952 
	C754.201050,87.243126 755.408142,83.065117 753.351624,76.311127 
z"/>
<path fill="#F5F9F9" opacity="1.000000" stroke="none" 
	d="
M175.614548,174.440170 
	C175.610779,174.731369 175.614563,175.022461 175.436249,175.907181 
	C175.381638,188.082626 175.516678,199.664337 175.651733,211.246063 
	C175.629562,211.552261 175.626770,211.858627 175.218765,212.540314 
	C174.136810,212.997925 173.479477,213.152344 172.822098,213.152573 
	C135.228745,213.165863 97.635361,213.179245 60.042122,213.115295 
	C58.704571,213.113022 57.368347,212.333008 56.031509,211.915482 
	C56.770863,201.142319 56.477997,190.172211 58.487129,179.641296 
	C61.643486,163.097183 73.086639,151.563126 85.404495,141.037827 
	C103.234573,125.802444 121.151909,110.669197 139.735245,94.895493 
	C118.577080,94.895493 98.178818,94.895493 77.410736,94.895493 
	C77.410736,100.875580 77.410736,106.809204 77.410736,113.067581 
	C70.151382,113.067581 63.253185,113.067581 56.161736,113.067581 
	C56.161736,99.938538 56.161736,86.981125 56.161736,73.621582 
	C95.742561,73.621582 135.305222,73.621582 175.242874,73.621582 
	C175.242874,99.965195 175.242874,126.513763 175.242874,153.355042 
	C168.421066,153.355042 161.678406,153.355042 154.355469,153.355042 
	C154.355469,139.238144 154.355469,125.226189 154.355469,110.229225 
	C141.165283,121.457428 128.764801,131.943985 116.444977,142.524460 
	C107.854866,149.901794 99.189293,157.207779 90.900795,164.914917 
	C83.221619,172.055435 78.458549,180.871521 77.815605,192.381409 
	C103.000053,192.381409 128.054886,192.381409 153.863647,191.923401 
	C154.617584,185.862411 154.617584,180.259430 154.617584,174.440170 
	C162.076645,174.440170 168.845596,174.440170 175.614548,174.440170 
z"/>
<path fill="#F2F8F7" opacity="1.000000" stroke="none" 
	d="
M457.225464,179.249451 
	C441.993073,183.987915 427.310760,179.531387 417.444183,167.409500 
	C408.127197,155.962738 407.004913,138.650696 414.671692,124.641808 
	C421.562836,112.050148 435.610565,104.987381 450.435913,106.918976 
	C458.744812,108.001534 465.369720,112.232841 470.861176,119.714844 
	C470.861176,115.461990 470.861176,112.178253 470.861176,108.693451 
	C475.410248,108.693451 479.673676,108.693451 484.240662,108.693451 
	C484.240662,132.247238 484.240662,155.615540 484.240662,179.271973 
	C479.894867,179.271973 475.646759,179.271973 470.874268,179.271973 
	C470.874268,175.959900 470.874268,172.572113 470.874268,169.874908 
	C466.415161,172.980591 462.003540,176.053238 457.225464,179.249451 
M424.205750,137.041382 
	C423.926208,138.681686 423.534393,140.311798 423.384369,141.963867 
	C421.714233,160.353775 437.943329,173.374359 455.232300,167.541779 
	C465.460510,164.091202 471.948334,153.079498 470.728119,141.240997 
	C469.524139,129.560211 461.229645,120.637337 450.287170,119.251442 
	C438.017822,117.697502 428.854889,123.719704 424.205750,137.041382 
z"/>
<path fill="#F2F8F7" opacity="1.000000" stroke="none" 
	d="
M720.698975,179.551636 
	C717.293640,179.551498 714.339172,179.551498 711.042175,179.551498 
	C711.042175,175.765656 711.042175,172.515717 711.042175,168.067764 
	C704.177795,177.380081 695.779907,181.530014 685.324524,181.235748 
	C675.588806,180.961731 667.142639,177.573624 660.311646,170.514862 
	C645.849487,155.570587 646.275452,131.128418 661.227417,116.527107 
	C675.482788,102.606079 695.374084,103.478485 710.869934,119.091209 
	C710.869934,115.512787 710.869934,112.303528 710.869934,108.793457 
	C715.512085,108.793457 719.758484,108.793457 724.376038,108.793457 
	C724.486145,109.689438 724.698059,110.613396 724.698792,111.537529 
	C724.716248,132.837524 724.674561,154.137665 724.755066,175.437363 
	C724.765259,178.133011 724.621094,180.157074 720.698975,179.551636 
M708.732849,154.933823 
	C712.682434,145.005234 711.797119,135.614227 705.013550,127.241356 
	C698.496704,119.197723 687.101013,116.830307 677.332520,121.047615 
	C668.256836,124.965797 662.466125,135.447159 663.560608,145.974945 
	C664.841980,158.299622 671.721008,166.352463 682.735474,168.421921 
	C693.666199,170.475632 702.824951,165.895874 708.732849,154.933823 
z"/>
<path fill="#F3F8F7" opacity="1.000000" stroke="none" 
	d="
M634.950867,179.576294 
	C632.189209,179.567001 629.872498,179.567001 627.187805,179.567001 
	C627.058411,178.117264 626.852478,176.863205 626.849304,175.608643 
	C626.822083,164.786118 626.884949,153.963058 626.796448,143.141190 
	C626.770630,139.991547 626.612915,136.796051 626.049133,133.706726 
	C624.473633,125.073746 619.915344,120.338341 612.450378,119.157005 
	C604.098450,117.835304 596.020264,121.057541 592.660095,128.442413 
	C590.461914,133.273666 589.334717,138.911545 589.095886,144.249344 
	C588.577454,155.838470 588.935974,167.466827 588.935974,179.313629 
	C584.228516,179.313629 579.969299,179.313629 575.414001,179.313629 
	C575.414001,143.796722 575.414001,108.428368 575.414001,72.764603 
	C579.705444,72.764603 583.966614,72.764603 588.787964,72.764603 
	C588.787964,87.446671 588.787964,102.130623 588.787964,118.098495 
	C590.704285,116.698486 591.761353,116.128555 592.563660,115.309189 
	C601.982910,105.689377 613.398010,104.555725 625.307373,108.652451 
	C636.900757,112.640495 640.322205,122.731674 640.629700,133.778702 
	C641.046448,148.747406 640.733337,163.736404 640.733337,179.335068 
	C638.882263,179.421936 637.139038,179.503754 634.950867,179.576294 
z"/>
<path fill="#F1F8F7" opacity="1.000000" stroke="none" 
	d="
M311.065979,147.819794 
	C308.438599,147.820053 306.301941,147.820053 304.182800,147.820053 
	C304.168091,158.547134 309.006989,165.816452 317.701538,168.532913 
	C328.227325,171.821503 336.573425,168.984741 342.932129,160.126328 
	C343.568024,159.240463 344.934570,158.449051 346.007721,158.385406 
	C349.631592,158.170547 353.276031,158.303543 357.693298,158.303543 
	C354.918671,167.562408 349.822021,174.126556 341.566193,177.921341 
	C315.391968,189.952255 288.289337,171.013779 290.056519,142.028870 
	C291.367645,120.524414 304.174438,107.066185 323.697968,106.676201 
	C346.769135,106.215347 361.842377,124.389381 357.162140,147.819550 
	C342.050934,147.819550 326.803833,147.819550 311.065979,147.819794 
M322.848114,117.412666 
	C310.254639,119.049049 303.899231,125.757256 304.425659,136.890503 
	C317.809448,136.890503 331.192902,136.890503 344.571747,136.890503 
	C344.633911,124.645355 337.004150,117.608704 322.848114,117.412666 
z"/>
<path fill="#F0F7F5" opacity="1.000000" stroke="none" 
	d="
M789.010437,121.911057 
	C784.863892,121.911095 781.214844,121.911095 777.152344,121.911095 
	C777.152344,140.989197 777.152344,159.898193 777.152344,179.191650 
	C772.530579,179.191650 768.311768,179.191650 763.762451,179.191650 
	C763.762451,155.809143 763.762451,132.425125 763.762451,108.408089 
	C771.091980,108.408089 778.357666,108.393448 785.623230,108.412575 
	C791.785461,108.428795 797.959900,108.249168 804.107300,108.570389 
	C817.301331,109.259834 828.277222,119.119949 828.891968,132.198410 
	C829.624817,147.788666 829.064636,163.439728 829.064636,179.313004 
	C824.729614,179.313004 820.625854,179.313004 815.754822,179.313004 
	C815.754822,177.681259 815.753967,175.942337 815.755005,174.203400 
	C815.762878,160.711929 815.807312,147.220337 815.766846,133.729004 
	C815.737976,124.120667 813.543152,121.960091 803.998840,121.914345 
	C799.168640,121.891190 794.338196,121.910759 789.010437,121.911057 
z"/>
<path fill="#F4F9F8" opacity="1.000000" stroke="none" 
	d="
M563.926636,132.946060 
	C559.543701,133.905380 555.103577,134.445541 550.859680,134.961838 
	C546.015198,121.690887 539.893372,117.729393 527.476990,119.280045 
	C517.209351,120.562347 510.090851,128.650436 508.947540,140.333359 
	C507.675873,153.328323 512.794800,163.562897 522.413879,167.257538 
	C534.179077,171.776489 543.986328,168.058395 549.847473,157.000549 
	C550.336975,156.076996 551.675842,155.105591 552.677246,155.040741 
	C556.305420,154.805847 559.957947,154.948181 563.590820,154.948181 
	C563.729797,165.237030 555.402649,175.607178 544.382324,179.190674 
	C527.473511,184.688919 510.553162,179.733353 501.524933,166.638718 
	C491.892700,152.668045 492.687256,131.522675 503.651642,118.557091 
	C513.759827,106.603951 527.074707,104.559189 541.391296,107.998825 
	C554.088928,111.049522 561.669678,119.498978 563.926636,132.946060 
z"/>
<path fill="#EEF5F4" opacity="1.000000" stroke="none" 
	d="
M259.001587,167.139587 
	C267.803070,167.139603 276.105103,167.139603 284.690369,167.139603 
	C284.690369,171.261856 284.690369,175.021240 284.690369,179.178284 
	C266.531586,179.178284 248.335632,179.178284 230.027008,179.178284 
	C227.913651,164.172607 232.041824,151.668533 244.166763,142.018188 
	C252.367920,135.490799 260.285828,128.607498 269.161316,121.188889 
	C255.583572,121.188889 242.914261,121.188889 229.916077,121.188889 
	C229.916077,116.722397 229.916077,112.820953 229.916077,108.630417 
	C248.060425,108.630417 266.139832,108.630417 284.910370,108.630417 
	C284.910370,113.380188 285.128693,118.146889 284.767975,122.869347 
	C284.668823,124.167473 282.985779,125.505920 281.779999,126.532928 
	C271.255432,135.497070 260.647644,144.363525 250.122894,153.327515 
	C246.005264,156.834534 242.892181,160.992935 242.251984,167.139557 
	C247.927719,167.139557 253.214920,167.139557 259.001587,167.139587 
z"/>
<path fill="#F1F7F6" opacity="1.000000" stroke="none" 
	d="
M387.286072,145.992859 
	C387.469696,150.641861 387.341400,154.835892 387.909027,158.933517 
	C388.785431,165.260330 391.611359,167.554977 397.937775,167.722275 
	C401.225067,167.809219 404.516510,167.737595 408.020203,167.737595 
	C408.020203,171.645981 408.020203,175.417007 408.020203,179.831619 
	C401.492401,179.831619 394.996643,180.518036 388.709839,179.664734 
	C380.082428,178.493774 374.937683,172.101273 373.919739,162.026688 
	C373.269623,155.592529 373.503723,149.064270 373.436920,142.577209 
	C373.364929,135.586639 373.407379,128.594879 373.386047,121.603699 
	C373.385071,121.285469 373.247925,120.967659 373.061401,120.163223 
	C368.970459,120.163223 364.746613,120.163223 360.493439,120.163223 
	C360.493439,116.086464 360.493439,112.502365 360.493439,108.427048 
	C364.811829,108.427048 368.895752,108.427048 373.354431,108.427048 
	C373.354431,100.357994 373.354431,92.774315 373.354431,84.909607 
	C378.022003,84.909607 382.297272,84.909607 387.129211,84.909607 
	C387.129211,92.469910 387.129211,100.182335 387.129211,108.446739 
	C393.582764,108.446739 399.497192,108.446739 405.586395,108.446739 
	C405.586395,112.456352 405.586395,115.901718 405.586395,119.839584 
	C399.694275,119.839584 393.799225,119.839584 387.286011,119.839584 
	C387.286011,128.709656 387.286011,137.102173 387.286072,145.992859 
z"/>
<path fill="#F3F8F7" opacity="1.000000" stroke="none" 
	d="
M750.967896,141.000000 
	C750.967896,153.965988 750.967896,166.431961 750.967896,179.227936 
	C746.367188,179.227936 741.980530,179.227936 737.382385,179.227936 
	C737.382385,155.692383 737.382385,132.338593 737.382385,108.736679 
	C741.855164,108.736679 746.119446,108.736679 750.967896,108.736679 
	C750.967896,119.361183 750.967896,129.930588 750.967896,141.000000 
z"/>
<path fill="#F1F8F7" opacity="1.000000" stroke="none" 
	d="
M753.566711,76.626251 
	C755.408142,83.065117 754.201050,87.243126 749.785767,89.990952 
	C745.725342,92.517921 741.568176,92.453156 737.691895,89.607658 
	C733.934387,86.849373 732.858521,82.915535 733.923767,78.548012 
	C734.954590,74.321846 737.841980,71.603127 742.132507,70.839729 
	C747.081482,69.959198 750.855164,71.936554 753.566711,76.626251 
z"/>
<path fill="#568575" opacity="1.000000" stroke="none" 
	d="
M55.815670,212.195404 
	C57.368347,212.333008 58.704571,213.113022 60.042122,213.115295 
	C97.635361,213.179245 135.228745,213.165863 172.822098,213.152573 
	C173.479477,213.152344 174.136810,212.997925 175.223099,212.770172 
	C174.309723,213.120331 172.968307,214.045731 171.624969,214.048523 
	C134.241425,214.126099 96.857651,214.126526 59.474133,214.040848 
	C58.181511,214.037888 56.891216,213.020096 55.815670,212.195404 
z"/>
<path fill="#568575" opacity="1.000000" stroke="none" 
	d="
M175.484573,174.049850 
	C168.845596,174.440170 162.076645,174.440170 154.617584,174.440170 
	C154.617584,180.259430 154.617584,185.862411 154.301239,191.744507 
	C153.984909,185.908905 153.984909,179.794220 153.984909,173.659531 
	C161.193771,173.659531 168.274185,173.659531 175.484573,174.049850 
z"/>
<path fill="#568575" opacity="1.000000" stroke="none" 
	d="
M175.824402,210.787216 
	C175.516678,199.664337 175.381638,188.082626 175.452942,176.124908 
	C175.771881,187.275391 175.884476,198.801880 175.824402,210.787216 
z"/>
<path fill="#020404" opacity="1.000000" stroke="none" 
	d="
M424.307251,136.650513 
	C428.854889,123.719704 438.017822,117.697502 450.287170,119.251442 
	C461.229645,120.637337 469.524139,129.560211 470.728119,141.240997 
	C471.948334,153.079498 465.460510,164.091202 455.232300,167.541779 
	C437.943329,173.374359 421.714233,160.353775 423.384369,141.963867 
	C423.534393,140.311798 423.926208,138.681686 424.307251,136.650513 
z"/>
<path fill="#020403" opacity="1.000000" stroke="none" 
	d="
M708.545410,155.271698 
	C702.824951,165.895874 693.666199,170.475632 682.735474,168.421921 
	C671.721008,166.352463 664.841980,158.299622 663.560608,145.974945 
	C662.466125,135.447159 668.256836,124.965797 677.332520,121.047615 
	C687.101013,116.830307 698.496704,119.197723 705.013550,127.241356 
	C711.797119,135.614227 712.682434,145.005234 708.545410,155.271698 
z"/>
<path fill="#030606" opacity="1.000000" stroke="none" 
	d="
M323.263641,117.376671 
	C337.004150,117.608704 344.633911,124.645355 344.571747,136.890503 
	C331.192902,136.890503 317.809448,136.890503 304.425659,136.890503 
	C303.899231,125.757256 310.254639,119.049049 323.263641,117.376671 
z"/>
</svg>