<?xml version="1.0" encoding="UTF-8"?>
<svg version="1.1" xmlns="http://www.w3.org/2000/svg" width="883" height="282">
<path d="M0 0 C39.93 0 79.86 0 121 0 C121 26.73 121 53.46 121 81 C113.74 81 106.48 81 99 81 C98.505 60.21 98.505 60.21 98 39 C93.71 42.96 89.42 46.92 85 51 C79.625 55.4375 79.625 55.4375 76.9453125 57.58984375 C73.4008358 60.4902975 69.95001745 63.48836823 66.5 66.5 C62.1842102 70.26739245 57.84238491 73.97426518 53.375 77.5625 C38.33238001 89.79446603 28.43365731 99.9821994 23 119 C48.08 119 73.16 119 99 119 C98.67 112.73 98.34 106.46 98 100 C105.59 100 113.18 100 121 100 C121 113.53 121 127.06 121 141 C81.07 141 41.14 141 0 141 C1.25997552 106.98066091 4.80415981 90.81125435 28.29980469 68.56591797 C31.44742554 65.66688866 34.74805818 62.98339235 38.1015625 60.328125 C41.58206546 57.53246494 44.94778437 54.62063283 48.3125 51.6875 C49.595027 50.57158576 50.87757917 49.45570043 52.16015625 48.33984375 C52.79711426 47.78538574 53.43407227 47.23092773 54.09033203 46.65966797 C62.2912405 39.53236348 70.54575267 32.48482813 78.98828125 25.64453125 C80.87626649 24.15704175 80.87626649 24.15704175 82 23 C52.795 22.505 52.795 22.505 23 22 C23 28.27 23 34.54 23 41 C15.41 41 7.82 41 0 41 C0 27.47 0 13.94 0 0 Z " fill="#F5F9F8" transform="translate(54,72)"/>
<path d="M0 0 C2.53708987 1.86751678 4.71541367 3.81474351 7 6 C7.33 3.36 7.66 0.72 8 -2 C12.95 -2 17.9 -2 23 -2 C23 21.76 23 45.52 23 70 C18.05 70 13.1 70 8 70 C7.505 66.04 7.505 66.04 7 62 C6.57589844 62.39832031 6.15179688 62.79664063 5.71484375 63.20703125 C-1.30159409 69.54495642 -8.24930642 72.32822596 -17.83203125 72.1484375 C-27.3131138 71.4992823 -36.15209782 67.66282375 -43 61 C-50.95447496 51.06731791 -54.28194107 40.69279923 -53 28 C-51.2378333 17.95128079 -46.13705029 8.92521024 -38.21875 2.46875 C-26.79250323 -5.0951035 -12.10658944 -6.8763761 0 0 Z M-33.375 17.875 C-38.16725975 24.98525496 -38.71095287 31.55743464 -38 40 C-36.65441202 46.30744364 -33.51947234 51.24934444 -28.390625 55.2578125 C-22.13332818 59.08171611 -15.09270901 58.81106824 -8 58 C-0.77230474 55.9929333 3.05986861 51.27815304 6.8125 44.9375 C9.33928608 38.44005008 9.01611496 30.11038444 6.8125 23.5625 C3.85213778 17.74385702 0.50532768 13.40563186 -5.49609375 10.6953125 C-16.11247049 7.74723908 -26.40069402 9.16546 -33.375 17.875 Z " fill="#E9F0EF" transform="translate(461,109)"/>
<path d="M0 0 C2.53708987 1.86751678 4.71541367 3.81474351 7 6 C7.69096471 2.01600042 7.69096471 2.01600042 8 -2 C12.95 -2 17.9 -2 23 -2 C23 21.76 23 45.52 23 70 C18.38 70 13.76 70 9 70 C8.505 66.535 8.505 66.535 8 63 C5.04161775 63 3.85227276 64.84776882 1.7109375 66.69140625 C-5.23694677 72.00542732 -13.80161749 72.77066923 -22.19921875 71.7265625 C-30.47981767 70.19472396 -37.48430198 66.41013553 -43 60 C-43.73863281 59.18982422 -43.73863281 59.18982422 -44.4921875 58.36328125 C-50.66459976 51.03929954 -53.85104524 41.1847259 -53.3828125 31.6015625 C-52.05374273 22.56931287 -49.32615134 14.66581047 -43 8 C-42.35160156 7.30003906 -41.70320312 6.60007812 -41.03515625 5.87890625 C-30.00878836 -4.98794818 -13.62476892 -7.73868114 0 0 Z M8 7 C9 9 9 9 9 9 Z M-31.7421875 15.8359375 C-37.48723116 23.01037002 -38.99749774 29.91168727 -38 39 C-35.94835917 46.82950499 -32.47832319 52.07566092 -25.5 56.3125 C-19.33748471 59.17200046 -12.03681696 59.15152792 -5.5625 57.3046875 C0.35984958 54.63514356 3.73707733 50.3905322 6.75 44.6875 C9.55482205 36.41327494 9.33885578 30.1185456 6 22 C2.86724887 16.07014965 -1.64378899 12.118737 -8 10 C-17.07385872 9.29668948 -25.16352343 8.9032646 -31.7421875 15.8359375 Z M8 59 C9 61 9 61 9 61 Z " fill="#E8F0EE" transform="translate(701,109)"/>
<path d="M0 0 C4.62 0 9.24 0 14 0 C15.71802382 3.43604765 15.1196618 7.38438896 15.09765625 11.1640625 C15.0962413 12.07127045 15.09482635 12.97847839 15.09336853 13.91317749 C15.08776096 16.81715155 15.07520718 19.72104915 15.0625 22.625 C15.05748598 24.59114472 15.0529229 26.55729065 15.04882812 28.5234375 C15.03778906 33.3489879 15.02051935 38.17448097 15 43 C17.68986864 43 18.15940755 42.03660401 20.0625 40.1875 C26.59910775 34.49823029 33.56521329 33.4659668 42.0703125 33.71484375 C49.33655829 34.42209167 54.88470907 36.65219585 60 42 C64.2396186 48.31921471 66.13210965 53.70293348 66.11352539 61.34106445 C66.11341209 62.90211662 66.11341209 62.90211662 66.11329651 64.4947052 C66.10813522 65.6063353 66.10297394 66.71796539 66.09765625 67.86328125 C66.0962413 69.01040085 66.09482635 70.15752045 66.09336853 71.33940125 C66.08777861 74.99712754 66.07522789 78.65479225 66.0625 82.3125 C66.0574837 84.79492099 66.05292102 87.27734294 66.04882812 89.75976562 C66.03781246 95.83986742 66.02055469 101.91992327 66 108 C61.05 108 56.1 108 51 108 C50.9906543 106.62336182 50.98130859 105.24672363 50.97167969 103.82836914 C50.93161647 98.68986406 50.86581211 93.55194743 50.79248047 88.41381836 C50.76436538 86.19579667 50.74310409 83.97767654 50.72900391 81.75952148 C50.7074434 78.55922394 50.66072493 75.36009813 50.609375 72.16015625 C50.60814636 71.17854019 50.60691772 70.19692413 50.60565186 69.18556213 C50.47071563 62.75104048 49.35064406 57.56257696 46 52 C42.08424677 48.41988276 37.16405546 47.8908411 32 48 C25.65972988 48.88784672 22.01101336 51.31874298 18.19140625 56.37890625 C13.61490666 66.44720535 14.56238516 78.2996034 14.375 89.125 C14.33675117 90.95835049 14.29769562 92.79168434 14.2578125 94.625 C14.16256532 99.08319568 14.07826439 103.54147517 14 108 C9.38 108 4.76 108 0 108 C0 72.36 0 36.72 0 0 Z M14 45 C15 47 15 47 15 47 Z " fill="#ECF3F1" transform="translate(574,71)"/>
<path d="M0 0 C7.68657173 5.53073859 13.14419461 13.05317264 15.21484375 22.37109375 C15.83447712 27.6379774 15.88847785 32.36405735 14.58984375 37.55859375 C-3.23015625 37.55859375 -21.05015625 37.55859375 -39.41015625 37.55859375 C-36.2529677 49.26022707 -36.2529677 49.26022707 -28.47265625 56.37109375 C-22.03780926 58.80853579 -14.28209509 58.5159067 -7.84765625 56.37109375 C-4.54585122 53.91590539 -2.25021436 51.23870996 -0.41015625 47.55859375 C4.53984375 47.55859375 9.48984375 47.55859375 14.58984375 47.55859375 C13.02448607 55.38538216 8.67979253 61.37543368 2.4453125 66.34375 C-6.09612698 71.93614511 -16.51791022 72.48652488 -26.34765625 70.87109375 C-34.83721238 68.99609976 -42.14380909 64.51910246 -47.41015625 57.55859375 C-54.61090674 45.29630778 -55.37027913 33.20029211 -52.41015625 19.55859375 C-51.1186024 15.9225889 -49.52776342 12.77809534 -47.41015625 9.55859375 C-47.02859375 8.97722656 -46.64703125 8.39585938 -46.25390625 7.796875 C-36.00311535 -5.95165198 -14.23100559 -8.51092555 0 0 Z M-36.1484375 15.25390625 C-38.05304004 18.47894217 -38.05304004 18.47894217 -39.41015625 26.55859375 C-26.21015625 26.55859375 -13.01015625 26.55859375 0.58984375 26.55859375 C-0.41998908 17.47009827 -0.94921656 15.05240733 -7.41015625 9.55859375 C-17.21522204 4.21037604 -28.99167076 7.37165905 -36.1484375 15.25390625 Z " fill="#E8F1EF" transform="translate(342.41015625,109.44140625)"/>
<path d="M0 0 C10.828125 -0.12375 10.828125 -0.12375 21.875 -0.25 C25.26241455 -0.30462402 25.26241455 -0.30462402 28.71826172 -0.36035156 C30.53872736 -0.3720506 32.35920358 -0.38223954 34.1796875 -0.390625 C35.56039429 -0.4213208 35.56039429 -0.4213208 36.96899414 -0.45263672 C45.33160963 -0.45706724 52.60197392 1.52381509 58.875 7.25 C64.62924852 13.57424484 67.13599264 20.45878808 67.11352539 28.97387695 C67.11341209 30.41480461 67.11341209 30.41480461 67.11329651 31.88484192 C67.10813522 32.9089769 67.10297394 33.93311188 67.09765625 34.98828125 C67.0962413 36.04661667 67.09482635 37.10495209 67.09336853 38.19535828 C67.08778159 41.56776789 67.07523144 44.94011054 67.0625 48.3125 C67.05748331 50.60221258 67.0529207 52.89192621 67.04882812 55.18164062 C67.03781643 60.78778612 67.02056072 66.39388172 67 72 C62.05 72 57.1 72 52 72 C51.970271 69.61527466 51.970271 69.61527466 51.93994141 67.18237305 C51.86398261 61.29500236 51.77525017 55.40788197 51.68261719 49.52075195 C51.64428722 46.97067194 51.60944152 44.42053711 51.578125 41.87036133 C51.53256201 38.20894757 51.47455262 34.5479125 51.4140625 30.88671875 C51.40251129 29.7428923 51.39096008 28.59906586 51.37905884 27.420578 C51.35918915 26.35970474 51.33931946 25.29883148 51.31884766 24.20581055 C51.30552399 23.27093307 51.29220032 22.3360556 51.2784729 21.37284851 C51.15083272 18.73448393 51.15083272 18.73448393 49 16 C45.45763811 14.58934773 41.59366216 14.79162146 37.828125 14.68359375 C36.5793457 14.64548584 35.33056641 14.60737793 34.04394531 14.56811523 C31.67094238 14.50346069 31.67094238 14.50346069 29.25 14.4375 C24.2175 14.293125 19.185 14.14875 14 14 C14 33.14 14 52.28 14 72 C9.38 72 4.76 72 0 72 C0 48.24 0 24.48 0 0 Z " fill="#EEF4F3" transform="translate(762,107)"/>
<path d="M0 0 C7.19859891 5.17962626 12.10644785 11.35216755 13.90234375 20.12109375 C14.21171875 22.31765625 14.21171875 22.31765625 14.52734375 24.55859375 C9.57734375 24.55859375 4.62734375 24.55859375 -0.47265625 24.55859375 C-4.47265625 15.80859375 -4.47265625 15.80859375 -4.47265625 13.55859375 C-9.64791794 11.46051469 -13.66125863 10.38046465 -19.28515625 10.30859375 C-20.48785156 10.2828125 -21.69054687 10.25703125 -22.9296875 10.23046875 C-28.18793903 10.71745125 -31.37307108 12.51015208 -35.16015625 16.12109375 C-39.2981244 21.50045234 -41.07117417 28.75781753 -40.7578125 35.48828125 C-39.76640319 42.68618448 -37.84060947 48.55663734 -32.47265625 53.55859375 C-26.0651099 57.64851695 -18.87000607 57.3070315 -11.47265625 56.55859375 C-8.12266333 55.71263594 -7.18181744 54.9732809 -4.47265625 52.55859375 C-2.77744258 49.60087861 -1.6577676 46.78209662 -0.47265625 43.55859375 C4.47734375 43.55859375 9.42734375 43.55859375 14.52734375 43.55859375 C14.85734375 44.54859375 15.18734375 45.53859375 15.52734375 46.55859375 C14.86734375 46.55859375 14.20734375 46.55859375 13.52734375 46.55859375 C13.43453125 47.79609375 13.43453125 47.79609375 13.33984375 49.05859375 C11.56223834 56.71597089 6.81789838 62.05929571 0.52734375 66.55859375 C-8.15228417 71.95925112 -19.09017163 72.66946617 -28.97265625 70.87109375 C-39.17147963 68.28147947 -46.0744311 62.26686593 -51.7890625 53.55078125 C-57.47001828 43.19509065 -57.53028904 31.73395564 -54.5078125 20.5859375 C-51.35769806 11.37333868 -45.73030242 3.93999069 -37.1015625 -0.72265625 C-25.4430844 -6.08287607 -11.34986642 -6.61627284 0 0 Z " fill="#E8F0EF" transform="translate(549.47265625,109.44140625)"/>
<path d="M0 0 C18.48 0 36.96 0 56 0 C56.495 7.425 56.495 7.425 57 15 C49.23658805 22.76341195 41.13643755 29.99831246 32.5859375 36.8828125 C29.48622153 39.42064642 26.51099766 42.07827449 23.55859375 44.78515625 C22 46 22 46 20 46 C19.731875 46.556875 19.46375 47.11375 19.1875 47.6875 C18 50 18 50 16.4375 52.5 C14.77402992 55.12943864 14.77402992 55.12943864 14 59 C28.19 59 42.38 59 57 59 C56.67 63.29 56.34 67.58 56 72 C37.52 72 19.04 72 0 72 C-1.14219473 60.57805274 -0.70588227 51.44477173 6.28125 42.04296875 C12.40686079 34.76184501 19.60115511 28.93533711 27 23 C30.63 20.03 34.26 17.06 38 14 C25.46 13.67 12.92 13.34 0 13 C0 8.71 0 4.42 0 0 Z " fill="#E7F0EE" transform="translate(228,107)"/>
<path d="M0 0 C4.95 0 9.9 0 15 0 C15 7.92 15 15.84 15 24 C20.94 24 26.88 24 33 24 C33 28.29 33 32.58 33 37 C27.06 37 21.12 37 15 37 C15.09705289 42.46305589 15.19985649 47.92537396 15.31738281 53.38793945 C15.35560866 55.24529456 15.39047263 57.10272208 15.421875 58.96020508 C15.46766461 61.63388912 15.52563579 64.30707742 15.5859375 66.98046875 C15.59748871 67.80773972 15.60903992 68.63501068 15.62094116 69.48735046 C15.72835848 73.7064338 15.91717578 77.21233188 18 81 C21.171738 82.585869 24.63513822 82.37866445 28.125 82.5625 C28.87910156 82.60568359 29.63320313 82.64886719 30.41015625 82.69335938 C32.27321888 82.7994832 34.13658524 82.90025001 36 83 C36 87.29 36 91.58 36 96 C27.26250123 98.18437469 17.04707036 98.32157482 9 94 C4.07384351 89.94960466 1.29726518 85.22435931 0 79 C-0.10931529 77.56600771 -0.1750065 76.12826302 -0.20532227 74.69042969 C-0.22526749 73.84986023 -0.24521271 73.00929077 -0.26576233 72.14324951 C-0.28247482 71.24519592 -0.29918732 70.34714233 -0.31640625 69.421875 C-0.33718735 68.4953009 -0.35796844 67.56872681 -0.37937927 66.61407471 C-0.44466961 63.65945728 -0.50366431 60.70475232 -0.5625 57.75 C-0.60570473 55.74478268 -0.64931965 53.73957415 -0.69335938 51.734375 C-0.80032999 46.82300596 -0.90165518 41.91154903 -1 37 C-4.96 37 -8.92 37 -13 37 C-14.92024768 33.15950464 -13.43149256 28.12315118 -13 24 C-8.71 24 -4.42 24 0 24 C0 16.08 0 8.16 0 0 Z " fill="#E1ECEA" transform="translate(372,83)"/>
<path d="M0 0 C4.95 0 9.9 0 15 0 C14.67 23.76 14.34 47.52 14 72 C9.38 72 4.76 72 0 72 C0 48.24 0 24.48 0 0 Z " fill="#EFF6F5" transform="translate(736,107)"/>
<path d="M0 0 C3.6578218 2.03993908 5.66946174 3.50419262 8 7 C8.76579737 13.67337705 8.76579737 13.67337705 6.94921875 16.8203125 C3.82844193 20.63152668 2.1307212 21.88692788 -2.75 22.375 C-6.10058068 22.35058775 -7.84894532 21.75601354 -10.4375 19.625 C-13.40262766 16.58755215 -13.91100987 15.92549737 -14.3125 11.75 C-13.94328153 7.31937834 -12.83161153 5.38220266 -10 2 C-6.79214982 -0.35242347 -3.90350748 -0.4684209 0 0 Z " fill="#DFEAE8" transform="translate(746,69)"/>
<path d="M0 0 C7.59 0 15.18 0 23 0 C23 13.53 23 27.06 23 41 C-16.93 41 -56.86 41 -98 41 C-97.67 32.09 -97.34 23.18 -97 14 C-96.67 14 -96.34 14 -96 14 C-96 22.58 -96 31.16 -96 40 C-57.06 40 -18.12 40 22 40 C22 27.13 22 14.26 22 1 C15.4 1 8.8 1 2 1 C2 7.27 2 13.54 2 20 C-23.74 20 -49.48 20 -76 20 C-76 9 -76 9 -75 7 C-74.34 7 -73.68 7 -73 7 C-73 5.68 -73 4.36 -73 3 C-72.01 2.67 -71.02 2.34 -70 2 C-70.19335938 2.64066406 -70.38671875 3.28132812 -70.5859375 3.94140625 C-70.84632812 4.80636719 -71.10671875 5.67132813 -71.375 6.5625 C-71.75785156 7.83287109 -71.75785156 7.83287109 -72.1484375 9.12890625 C-73.12232624 12.41243022 -74.05910565 15.70686976 -75 19 C-49.92 19 -24.84 19 1 19 C0.67 12.73 0.34 6.46 0 0 Z " fill="#739E93" transform="translate(152,172)"/>
<path d="M0 0 C7.3425 -0.04125 14.685 -0.0825 22.25 -0.125 C24.56290039 -0.14320801 26.87580078 -0.16141602 29.25878906 -0.18017578 C31.09439868 -0.18601765 32.93001089 -0.19111393 34.765625 -0.1953125 C35.71679199 -0.20554443 36.66795898 -0.21577637 37.64794922 -0.22631836 C38.56108887 -0.22656006 39.47422852 -0.22680176 40.41503906 -0.22705078 C41.20557678 -0.231492 41.9961145 -0.23593323 42.81060791 -0.24050903 C45.25517547 0.02803153 46.88156035 0.78117843 49 2 C47.06966919 1.97643433 47.06966919 1.97643433 45.1003418 1.95239258 C40.33136236 1.89814225 35.56241026 1.8636677 30.79321289 1.83520508 C28.72806209 1.82010729 26.6629434 1.79962726 24.59790039 1.77368164 C21.63159261 1.73734205 18.66570829 1.7202837 15.69921875 1.70703125 C14.7741301 1.69154739 13.84904144 1.67606354 12.8959198 1.66011047 C12.03525406 1.65988388 11.17458832 1.65965729 10.2878418 1.65942383 C9.15199898 1.64943108 9.15199898 1.64943108 7.99320984 1.63923645 C5.94181328 1.87810072 5.94181328 1.87810072 4.2532959 3.1328125 C2.42695961 5.85372805 2.64021723 7.95685601 2.65942383 11.21557617 C2.65965042 12.4966777 2.65987701 13.77777924 2.66011047 15.09770203 C2.67543043 16.49612781 2.69107842 17.89455004 2.70703125 19.29296875 C2.71262732 20.72357234 2.71689737 22.15418169 2.71989441 23.58479309 C2.73134244 27.34801132 2.76080885 31.11088156 2.79400635 34.8739624 C2.82470837 38.71475517 2.8384 42.55560423 2.85351562 46.39648438 C2.88567894 53.93114814 2.93687434 61.46552529 3 69 C6.3 69.33 9.6 69.66 13 70 C13 51.52 13 33.04 13 14 C13.33 14 13.66 14 14 14 C14 33.14 14 52.28 14 72 C9.38 72 4.76 72 0 72 C0 48.24 0 24.48 0 0 Z " fill="#A7C5BF" transform="translate(762,107)"/>
<path d="M0 0 C3.49736545 5.24604818 3.19720346 10.88669289 3 17 C2.67 18.32 2.34 19.64 2 21 C-15.82 21 -33.64 21 -52 21 C-51.67 22.98 -51.34 24.96 -51 27 C-53.29013653 23.5647952 -53.17842973 22.014669 -53 18 C-52.01 18.33 -51.02 18.66 -50 19 C-48.32849013 19.11513832 -46.6530037 19.17636784 -44.9777832 19.20532227 C-43.44653557 19.2352401 -43.44653557 19.2352401 -41.88435364 19.26576233 C-40.78427475 19.28247482 -39.68419586 19.29918732 -38.55078125 19.31640625 C-36.85915108 19.3475779 -36.85915108 19.3475779 -35.13334656 19.37937927 C-31.5264604 19.44482847 -27.91950071 19.50373844 -24.3125 19.5625 C-21.86913298 19.60568961 -19.42577344 19.64930404 -16.98242188 19.69335938 C-10.98835684 19.8005052 -4.99421776 19.90178591 1 20 C0.67 13.4 0.34 6.8 0 0 Z " fill="#8EB5AB" transform="translate(355,126)"/>
<path d="M0 0 C-0.33 0.66 -0.66 1.32 -1 2 C-2.32 1.67 -3.64 1.34 -5 1 C-5 0.34 -5 -0.32 -5 -1 C-6.4540625 -0.9690625 -6.4540625 -0.9690625 -7.9375 -0.9375 C-11 -1 -11 -1 -12 -2 C-18.10484085 -2.68122688 -22.44516234 -1.67455146 -28 1 C-29.19625 1.268125 -30.3925 1.53625 -31.625 1.8125 C-35.00086112 3.00030299 -35.62625506 3.41502944 -37.6875 6.0625 C-40 9 -40 9 -42.3125 9.875 C-42.869375 9.91625 -43.42625 9.9575 -44 10 C-41.47920628 4.20966195 -36.85044203 1.30879451 -31.2265625 -1.2734375 C-20.08113107 -5.39812472 -10.66492067 -5.28527042 0 0 Z " fill="#A7C7BD" transform="translate(461,109)"/>
<path d="M0 0 C0.66 0.99 1.32 1.98 2 3 C1.34 4.32 0.68 5.64 0 7 C-0.66 7 -1.32 7 -2 7 C-1.690625 8.175625 -1.690625 8.175625 -1.375 9.375 C-1.25125 10.24125 -1.1275 11.1075 -1 12 C-1.66 12.66 -2.32 13.32 -3 14 C-3.50167619 16.5929024 -3.50167619 16.5929024 -3.6875 19.5 C-3.77386719 20.4796875 -3.86023438 21.459375 -3.94921875 22.46875 C-4.19618126 24.99519063 -4.19618126 24.99519063 -3 27 C-2.93049459 28.54023996 -2.91547643 30.08334988 -2.9375 31.625 C-2.94652344 32.44226563 -2.95554687 33.25953125 -2.96484375 34.1015625 C-2.97644531 34.72804687 -2.98804688 35.35453125 -3 36 C-7.6548894 27.14435674 -6.33934738 18.08909254 -3.8671875 8.7890625 C-2.8743433 5.5958609 -1.68090971 2.8815595 0 0 Z " fill="#8DB2A6" transform="translate(499,121)"/>
<path d="M0 0 C-8 4 -8 4 -10.19921875 5.01171875 C-12.53028369 6.29102337 -12.91638075 7.61603765 -14 10 C-15.4375 11.75 -15.4375 11.75 -17 13 C-17.99 13 -18.98 13 -20 13 C-18.25133484 7.75400451 -13.6969623 3.69507871 -9.0546875 0.77734375 C-5.61907359 -0.8214809 -3.5571713 -1.1058163 0 0 Z " fill="#B0CBC5" transform="translate(607,107)"/>
<path d="M0 0 C1.47968324 0.14049518 2.95874516 0.28754826 4.4375 0.4375 C5.67306641 0.55931641 5.67306641 0.55931641 6.93359375 0.68359375 C9 1 9 1 10 2 C11.41570123 2.08651611 12.835595 2.10704904 14.25390625 2.09765625 C15.10791016 2.09443359 15.96191406 2.09121094 16.84179688 2.08789062 C18.18854492 2.07532227 18.18854492 2.07532227 19.5625 2.0625 C20.46419922 2.05798828 21.36589844 2.05347656 22.29492188 2.04882812 C24.53001314 2.03700225 26.76497437 2.0205222 29 2 C22.77420355 6.15053097 15.3585852 5.59051024 8.25 4.1875 C4.90970035 3.38559732 2.53283477 2.42271152 0 0 Z " fill="#93B9B0" transform="translate(428,176)"/>
<path d="M0 0 C0.66 0.33 1.32 0.66 2 1 C0.32962931 2.97544743 -1.35883884 4.92859497 -3.0625 6.875 C-3.52849609 7.43058594 -3.99449219 7.98617187 -4.47460938 8.55859375 C-8.0302556 12.5738133 -10.73275717 13.96101827 -16 15 C-12.49441279 11.44314278 -8.89446761 8.03716953 -5.1875 4.6875 C-4.21167969 3.80449219 -3.23585938 2.92148438 -2.23046875 2.01171875 C-1.49441406 1.34785156 -0.75835937 0.68398437 0 0 Z " fill="#A0BEB7" transform="translate(124,105)"/>
<path d="M0 0 C0 0.66 0 1.32 0 2 C-0.639375 2.268125 -1.27875 2.53625 -1.9375 2.8125 C-4.33131686 3.88667752 -4.33131686 3.88667752 -5 7 C-5.639375 7.12375 -6.27875 7.2475 -6.9375 7.375 C-7.618125 7.58125 -8.29875 7.7875 -9 8 C-10.12085312 10.3430809 -10.12085312 10.3430809 -11 13 C-12.5 15.3125 -12.5 15.3125 -14 17 C-14.66 17 -15.32 17 -16 17 C-14.35278494 10.24641824 -10.39903007 5.48082232 -4.75 1.5625 C-2 0 -2 0 0 0 Z " fill="#9EC1B9" transform="translate(308,109)"/>
<path d="M0 0 C0.66 0.33 1.32 0.66 2 1 C0.11036105 2.94388696 -1.78623935 4.8800346 -3.6875 6.8125 C-4.21794922 7.35970703 -4.74839844 7.90691406 -5.29492188 8.47070312 C-8.28940929 11.50193272 -11.09290887 14.15935637 -15 16 C-15.66 15.67 -16.32 15.34 -17 15 C-11.39476999 9.92484204 -5.76774721 4.89004655 0 0 Z " fill="#A5C2BC" transform="translate(104,122)"/>
<path d="M0 0 C0.33 0 0.66 0 1 0 C0.96519531 0.79921875 0.93039062 1.5984375 0.89453125 2.421875 C0.6970633 10.43343171 1.68038487 17.33698574 4 25 C2.0625 24.375 2.0625 24.375 0 23 C-1.14155195 18.8303313 -1.13508311 14.68048844 -1.125 10.375 C-1.12757813 9.26898438 -1.13015625 8.16296875 -1.1328125 7.0234375 C-1.0214448 4.4881845 -0.74088772 2.41082513 0 0 Z " fill="#9EBEB6" transform="translate(508,134)"/>
<path d="M0 0 C2.37925995 0.95577109 4.69528701 1.96327553 6.9921875 3.1015625 C6.6621875 3.7615625 6.3321875 4.4215625 5.9921875 5.1015625 C4.6721875 4.7715625 3.3521875 4.4415625 1.9921875 4.1015625 C1.9921875 3.4415625 1.9921875 2.7815625 1.9921875 2.1015625 C0.538125 2.1325 0.538125 2.1325 -0.9453125 2.1640625 C-4.0078125 2.1015625 -4.0078125 2.1015625 -5.0078125 1.1015625 C-7.36094805 1.02884509 -9.71614918 1.01785382 -12.0703125 1.0390625 C-13.36066406 1.04808594 -14.65101563 1.05710937 -15.98046875 1.06640625 C-16.97949219 1.07800781 -17.97851562 1.08960937 -19.0078125 1.1015625 C-13.29143455 -2.28491733 -6.21700428 -1.85702725 0 0 Z " fill="#779F96" transform="translate(454.0078125,105.8984375)"/>
<path d="M0 0 C3.2830098 3.2830098 3.19284362 7.50298589 4 12 C-0.95 12 -5.9 12 -11 12 C-11 11.67 -11 11.34 -11 11 C-9.84371094 10.96132812 -9.84371094 10.96132812 -8.6640625 10.921875 C-7.66117188 10.86515625 -6.65828125 10.8084375 -5.625 10.75 C-4.62726562 10.70359375 -3.62953125 10.6571875 -2.6015625 10.609375 C0.1526477 10.27839115 0.1526477 10.27839115 1.3515625 7.953125 C1.56554687 7.30859375 1.77953125 6.6640625 2 6 C1.01 6 0.02 6 -1 6 C-0.67 4.02 -0.34 2.04 0 0 Z " fill="#7DA59A" transform="translate(560,122)"/>
<path d="M0 0 C-1.0725 0.66 -2.145 1.32 -3.25 2 C-7.40038883 4.9212676 -9.14881171 8.36628024 -11 13 C-11.33 13 -11.66 13 -12 13 C-12 10.69 -12 8.38 -12 6 C-10.68 5.34 -9.36 4.68 -8 4 C-8 3.01 -8 2.02 -8 1 C-4.85571151 -0.9090323 -3.47925125 -1.04523725 0 0 Z " fill="#B2CDC8" transform="translate(436,121)"/>
<path d="M0 0 C1.32 0.33 2.64 0.66 4 1 C-1.94 6.445 -1.94 6.445 -8 12 C-8.33 10.68 -8.66 9.36 -9 8 C-5.25 5 -5.25 5 -3 5 C-3 4.34 -3 3.68 -3 3 C-2.34 3 -1.68 3 -1 3 C-0.67 2.01 -0.34 1.02 0 0 Z " fill="#B2CFC8" transform="translate(147,111)"/>
<path d="M0 0 C1.32 0.33 2.64 0.66 4 1 C4 2.65 4 4.3 4 6 C4.66 6 5.32 6 6 6 C6.22185844 8.26955186 6.42705515 10.54073755 6.625 12.8125 C6.74101563 14.07707031 6.85703125 15.34164062 6.9765625 16.64453125 C7 20 7 20 5 23 C5.061875 21.88625 5.12375 20.7725 5.1875 19.625 C5.19967903 12.7682073 2.7009189 6.23288978 0 0 Z " fill="#95B8AF" transform="translate(704,126)"/>
<path d="M0 0 C0.33 0.66 0.66 1.32 1 2 C0.30197519 3.92787804 -0.40378281 5.85362576 -1.1640625 7.7578125 C-2.41429453 11.1112386 -3.19122572 14.51604925 -4 18 C-4.33 18 -4.66 18 -5 18 C-5.02696365 16.20841511 -5.04637917 14.41671527 -5.0625 12.625 C-5.07410156 11.62726563 -5.08570312 10.62953125 -5.09765625 9.6015625 C-5 7 -5 7 -4 5 C-3.34 5 -2.68 5 -2 5 C-2 3.68 -2 2.36 -2 1 C-1.34 0.67 -0.68 0.34 0 0 Z " fill="#9BBBB5" transform="translate(81,174)"/>
<path d="M0 0 C0.99 0.33 1.98 0.66 3 1 C4.47965926 1.14573058 5.96403843 1.24663268 7.44921875 1.31640625 C8.29677734 1.35830078 9.14433594 1.40019531 10.01757812 1.44335938 C10.89865234 1.48267578 11.77972656 1.52199219 12.6875 1.5625 C13.58017578 1.60568359 14.47285156 1.64886719 15.39257812 1.69335938 C17.59490108 1.79935353 19.79733473 1.90142051 22 2 C22 2.33 22 2.66 22 3 C15.07 3 8.14 3 1 3 C1.33 4.98 1.66 6.96 2 9 C-0.29013653 5.5647952 -0.17842973 4.014669 0 0 Z " fill="#A4C4BB" transform="translate(302,144)"/>
<path d="M0 0 C0.33 0 0.66 0 1 0 C2.72107623 12.59282511 2.72107623 12.59282511 0.953125 16.04296875 C-0.4375 17.375 -0.4375 17.375 -3 19 C-3.66 18.01 -4.32 17.02 -5 16 C-4.03320312 15.46439453 -4.03320312 15.46439453 -3.046875 14.91796875 C-0.15789794 12.21093109 -0.40394183 10.19953121 -0.25 6.3125 C-0.19328125 5.13300781 -0.1365625 3.95351562 -0.078125 2.73828125 C-0.05234375 1.83464844 -0.0265625 0.93101563 0 0 Z " fill="#B7D1CC" transform="translate(283,108)"/>
<path d="M0 0 C0.66 0.99 1.32 1.98 2 3 C-1.3 5.31 -4.6 7.62 -8 10 C-8.66 9.67 -9.32 9.34 -10 9 C-8.71142987 7.68445979 -7.41904109 6.37265903 -6.125 5.0625 C-5.04605469 3.96615234 -5.04605469 3.96615234 -3.9453125 2.84765625 C-2 1 -2 1 0 0 Z " fill="#BCD5CF" transform="translate(86,138)"/>
<path d="M0 0 C-0.61875 0.0825 -1.2375 0.165 -1.875 0.25 C-4.17469437 0.78131326 -4.17469437 0.78131326 -4.9375 2.9375 C-6.40657113 5.78922631 -8.01972614 6.00657538 -11 7 C-12.34050052 7.65213539 -13.67661368 8.31379969 -15 9 C-11.97792772 4.84465062 -5.72761782 -2.86380891 0 0 Z " fill="#A4C2BB" transform="translate(518,108)"/>
<path d="M0 0 C-3.3 2.97 -6.6 5.94 -10 9 C-10.33 7.68 -10.66 6.36 -11 5 C-10.01 5 -9.02 5 -8 5 C-7.71125 4.195625 -7.4225 3.39125 -7.125 2.5625 C-5.28589453 -1.62657357 -4.4721985 -1.11804963 0 0 Z " fill="#A7C4BD" transform="translate(101,155)"/>
<path d="M0 0 C0.96846689 2.61486062 1.04559628 3.8442127 0.25 6.5625 C-0.93965623 8.88232965 -2.04240712 10.30935161 -4 12 C-3.5317879 7.22423661 -2.75668002 3.95523655 0 0 Z " fill="#A0C1BA" transform="translate(233,151)"/>
<path d="M0 0 C0.66 0.33 1.32 0.66 2 1 C0.72278474 5.99275057 -1.17330957 8.57611908 -5 12 C-5.66 11.34 -6.32 10.68 -7 10 C-5.68 9.67 -4.36 9.34 -3 9 C-2.814375 8.1646875 -2.814375 8.1646875 -2.625 7.3125 C-1.94023145 4.77885636 -1.00866237 2.42078968 0 0 Z " fill="#B7CFCA" transform="translate(354,159)"/>
<path d="M0 0 C0.33 0 0.66 0 1 0 C1.13277344 0.96421875 1.26554688 1.9284375 1.40234375 2.921875 C1.57894531 4.18515625 1.75554688 5.4484375 1.9375 6.75 C2.19853516 8.62945312 2.19853516 8.62945312 2.46484375 10.546875 C2.86049338 13.09982593 3.30446422 15.5186291 4 18 C3.34 18 2.68 18 2 18 C-0.45391569 14.31912647 -0.22802759 11.55644412 -0.125 7.3125 C-0.11597656 6.61060547 -0.10695313 5.90871094 -0.09765625 5.18554688 C-0.07413704 3.45688475 -0.03826713 1.72839855 0 0 Z " fill="#8CB4A5" transform="translate(662,138)"/>
<path d="M0 0 C0.66 0.33 1.32 0.66 2 1 C-2.11118919 4.52387645 -5.46508112 7 -11 7 C-9.73299277 6.0158875 -8.4612381 5.03788503 -7.1875 4.0625 C-6.47980469 3.51722656 -5.77210938 2.97195312 -5.04296875 2.41015625 C-3 1 -3 1 0 0 Z " fill="#9BBDB6" transform="translate(672,107)"/>
<path d="M0 0 C2.0625 0.4375 2.0625 0.4375 4 1 C0.71195019 3.91227269 -1.59885603 5.49701212 -6 6 C-4 4 -2 2 0 0 Z " fill="#BDD6D1" transform="translate(114,114)"/>
<path d="M0 0 C0.33 0 0.66 0 1 0 C1.66 5.61 2.32 11.22 3 17 C-1 13 -1 13 -1.171875 9.765625 C-1.03265625 8.60546875 -0.8934375 7.4453125 -0.75 6.25 C-0.55664062 4.49429688 -0.55664062 4.49429688 -0.359375 2.703125 C-0.24078125 1.81109375 -0.1221875 0.9190625 0 0 Z " fill="#85A7A0" transform="translate(422,138)"/>
<path d="M0 0 C0.99 0.33 1.98 0.66 3 1 C-0.465 3.97 -0.465 3.97 -4 7 C-4.66 6.01 -5.32 5.02 -6 4 C-3.1875 1.9375 -3.1875 1.9375 0 0 Z " fill="#B6D1CB" transform="translate(554,169)"/>
<path d="M0 0 C0.99 0.33 1.98 0.66 3 1 C3.96070434 3.88211302 4.10581883 5.69850044 4.0625 8.6875 C4.05347656 9.49574219 4.04445313 10.30398437 4.03515625 11.13671875 C4.02355469 11.75160156 4.01195312 12.36648437 4 13 C3.67 13 3.34 13 3 13 C1.70074209 8.66914029 0.656379 4.48525648 0 0 Z " fill="#BDD6D0" transform="translate(467,131)"/>
<path d="M0 0 C2.125 0.375 2.125 0.375 4 1 C2.37660195 2.70884005 0.70680947 4.37446717 -1 6 C-1.66 6 -2.32 6 -3 6 C-2.42655063 3.13275314 -2.1385485 2.1385485 0 0 Z " fill="#ABCBBE" transform="translate(106,146)"/>
<path d="M0 0 C4.31392226 0.4793247 6.16569547 1.7457985 9 5 C5.97580475 4.41196203 2.98241547 3.77321882 0 3 C0 2.01 0 1.02 0 0 Z " fill="#9FC1B8" transform="translate(623,107)"/>
<path d="M0 0 C1.65 0 3.3 0 5 0 C1.375 4.875 1.375 4.875 -2 6 C-2 5.01 -2 4.02 -2 3 C-1.34 3 -0.68 3 0 3 C0 2.01 0 1.02 0 0 Z " fill="#B7D2CC" transform="translate(112,140)"/>
<path d="M0 0 C2.92509086 3.90012114 3.47535095 5.38308839 4 10 C3.01 10 2.02 10 1 10 C0.67 6.7 0.34 3.4 0 0 Z " fill="#A1C6B9" transform="translate(635,116)"/>
<path d="M0 0 C4.8 2.46153846 4.8 2.46153846 5.8125 5.1875 C5.874375 5.785625 5.93625 6.38375 6 7 C3.00675737 5.9024777 2.15389099 5.32317108 0.75 2.375 C0.5025 1.59125 0.255 0.8075 0 0 Z " fill="#9EBFB7" transform="translate(375,169)"/>
<path d="M0 0 C0.99 0.33 1.98 0.66 3 1 C1.35 2.65 -0.3 4.3 -2 6 C-2.33 5.01 -2.66 4.02 -3 3 C-2.34 3 -1.68 3 -1 3 C-0.67 2.01 -0.34 1.02 0 0 Z " fill="#B2CDC6" transform="translate(276,126)"/>
<path d="M0 0 C0.99 0.33 1.98 0.66 3 1 C1.35 2.98 -0.3 4.96 -2 7 C-2.6875 5.1875 -2.6875 5.1875 -3 3 C-1.5625 1.25 -1.5625 1.25 0 0 Z " fill="#C3DDD9" transform="translate(669,122)"/>
<path d="M0 0 C2.31 0 4.62 0 7 0 C7.33 1.32 7.66 2.64 8 4 C5.0280615 2.87548273 2.66559313 1.77706209 0 0 Z " fill="#99C2AC" transform="translate(537,119)"/>
</svg>
